HIERARCHY
ROOT Hips
{
	OFFSET	0.00	0.00	0.00
	CHANNELS 6 Xposition Yposition Zposition Zrotation Xrotation Yrotation
	JOINT Spine
	{
		OFFSET	 0.00	0.01	 0.00
		CHANNELS 3 Zrotation Xrotation Yrotation
		JOINT Spine1
		{
			OFFSET	 0.00	 2.45913012437421	 0.00
			CHANNELS 3 Zrotation Xrotation Yrotation
            JOINT Neck
            {
                OFFSET	 0.00	 2.48462964506057	 0.00
                CHANNELS 3 Zrotation Xrotation Yrotation
                JOINT Head
                {
                    OFFSET	 0.00	 0.927524780924562	 0.00
                    CHANNELS 3 Zrotation Xrotation Yrotation
                    End Site 
                    {
                        OFFSET	 0.00	 1.14999962169752	 0.00
                    }
                }
            }
			JOINT LeftShoulder
			{
				OFFSET	 0.00	 2.48462964506057	 0.00
				CHANNELS 3 Zrotation Xrotation Yrotation
				JOINT LeftUpArm
				{
					OFFSET	 0.00	 1.24881979654096	 0.00
					CHANNELS 3 Zrotation Xrotation Yrotation
					JOINT LeftForeArm
					{
						OFFSET	 0.00	2.59758046908119	 0.00
						CHANNELS 3 Zrotation Xrotation Yrotation
						JOINT LeftHand
						{
							OFFSET	 0.00	2.45542024364365	 0.00
							CHANNELS 3 Zrotation Xrotation Yrotation
							JOINT LeftHandThumb 
							{
								OFFSET	 0.00	0.00	 0.00
								CHANNELS 3 Zrotation Xrotation Yrotation
								End Site
								{
									OFFSET	 0.00	0.00	1.00000003353624
								}
							}
							JOINT L_Wrist_End 
							{
								OFFSET	 0.00	0.99999967115358	 0.00
								CHANNELS 3 Zrotation Xrotation Yrotation
								End Site 
								{
									OFFSET	 0.00	 0.00	 0.00
								}
							}
						}
					}
				}
			}
			JOINT RightShoulder
			{
				OFFSET	 0.00	 2.48462964506057	 0.00
				CHANNELS 3 Zrotation Xrotation Yrotation
				JOINT RightUpArm
				{
					OFFSET	 0.00	 1.24881979654096	 0.00
					CHANNELS 3 Zrotation Xrotation Yrotation
					JOINT RightForeArm
					{
						OFFSET	 0.00	2.59758046908119	 0.00
						CHANNELS 3 Zrotation Xrotation Yrotation
						JOINT RightHand
						{
							OFFSET	 0.00	2.45542024364365	 0.00
							CHANNELS 3 Zrotation Xrotation Yrotation
							JOINT RightHandThumb 
							{
								OFFSET	 0.00	0.00	 0.00
								CHANNELS 3 Zrotation Xrotation Yrotation
								End Site
								{
									OFFSET	 0.00	0.00	1.00000003353624
								}
							}
							JOINT R_Wrist_End 
							{
								OFFSET	 0.00	0.99999967115358	 0.00
								CHANNELS 3 Zrotation Xrotation Yrotation
								End Site 
								{
									OFFSET	 0.00	 0.00	 0.00
								}
							}
						}
					}
				}
			}
		}
	}
	JOINT LeftUpLeg
	{
		OFFSET	 1.2719394002717	 0.00	 0.00
		CHANNELS 3 Zrotation Xrotation Yrotation
		JOINT LeftLowLeg
		{
			OFFSET	 0.00	-4.3429100912261	 0.00
			CHANNELS 3 Zrotation Xrotation Yrotation
			JOINT LeftFoot
			{
				OFFSET	 0.00	-4.48767017425826	 0.00
				CHANNELS 3 Zrotation Xrotation Yrotation
				JOINT LeftToeBase
                {
                    OFFSET	 0.00	0.00	 1.51507020887566
                    CHANNELS 3 Zrotation Xrotation Yrotation
                    End Site 
                    {
                        OFFSET	 0.00	0.00	 0.75000010571191
                    }
                }
			}
		}
	}
	JOINT RightUpLeg
	{
		OFFSET	 -1.2719393604653	 0.00	 0.00
		CHANNELS 3 Zrotation Xrotation Yrotation
		JOINT RightLowLeg
		{
			OFFSET	 0.00	-4.3429100912261	 0.00
			CHANNELS 3 Zrotation Xrotation Yrotation
			JOINT RightFoot
			{
				OFFSET	 0.00	-4.48767017425826	 0.00
				CHANNELS 3 Zrotation Xrotation Yrotation
				JOINT RightToeBase
                {
                    OFFSET	 0.00	0.00	 1.51507020887566
                    CHANNELS 3 Zrotation Xrotation Yrotation
                    End Site 
                    {
                        OFFSET	 0.00	0.00	 0.749999965609858
                    }
                }   
			}
		}
	}
}
MOTION 
Frames:	15 
Frame Time: 0.02 
  1.211510009765625 9.739359741210938 10.479300537109374 -52.4178 83.1641 39.408 7.01582 -13.282 -9.39009 -9.66216 26.2932 5.06644 11.4527 63.1916 -11.0761 22.6971 -63.6138 19.4696 -108.4244 0.503025 -12.8015 -14.5118 13.3885 2.42388 0.0 93.2345 0.0 -15.2017 9.94389 -51.6847 0.0 0.0 0.0 0.0 0.0 0.0 114.2666 -2.17626 3.97205 16.5702 12.4116 10.4366 0.0 86.4768 0.0 16.0809 11.6516 50.3716 0.0 0.0 0.0 0.0 0.0 0.0 -0.484544 8.78742 16.6159 0.0 6.71701 0.0 -3.7625 3.9582005 11.9419 0.0 -8.77 0.0 2.14821 -5.37569 6.11655 0.0 14.6588 0.0 24.559 13.00372 -26.0586 0.0 -11.81643 0.0 
  1.209459991455078 9.73760986328125 10.479000244140625 -52.3824 83.1841 39.3172 6.98917 -13.2203 -9.40611 -9.60879 26.1649 5.03665 11.2836 63.3896 -10.864 22.6597 -63.692 19.3918 -108.4597 0.440027 -12.7085 -14.4786 13.3802 2.36041 0.0 93.2221 0.0 -15.3298 9.9849 -51.6656 0.0 0.0 0.0 0.0 0.0 0.0 114.2712 -2.08728 3.85343 16.6206 12.5345 10.4005 0.0 86.4311 0.0 15.8249 11.6352 50.5755 0.0 0.0 0.0 0.0 0.0 0.0 -0.488232 8.75476 16.6712 0.0 6.79653 0.0 -3.77227 3.9366999 11.9277 0.0 -8.65401 0.0 2.13812 -5.39448 6.12494 0.0 14.6866 0.0 24.5328 12.99593 -25.996 0.0 -11.844151 0.0 
  1.2068800354003906 9.73468994140625 10.478599853515625 -52.3789 83.1982 39.2556 6.9623 -13.1971 -9.41202 -9.54317 26.1459 5.05922 11.1386 63.4831 -10.7088 22.6163 -63.7752 19.2747 -108.473404 0.420925 -12.6884 -14.4936 13.3465 2.34029 0.0 93.2617 0.0 -15.3311 9.95938 -51.6278 0.0 0.0 0.0 0.0 0.0 0.0 114.2664 -2.0802 3.78854 16.6618 12.658 10.354 0.0 86.4838 0.0 15.552 11.4761 50.8468 0.0 0.0 0.0 0.0 0.0 0.0 -0.490034 8.75014 16.7243 0.0 6.83637 0.0 -3.78284 3.9244003 11.9448 0.0 -8.71146 0.0 2.1359 -5.39878 6.14059 0.0 14.7076 0.0 24.5369 12.96073 -25.9275 0.0 -11.81578 0.0 
  1.2041600036621094 9.731409912109376 10.478499755859374 -52.3973 83.2049 39.2304 6.92524 -13.1892 -9.42802 -9.45942 26.1993 5.1033 10.9566 63.5389 -10.5081 22.567 -63.8394 19.1759 -108.507904 0.383237 -12.7066 -14.5309 13.3824 2.30901 0.0 93.3065 0.0 -15.3459 9.885 -51.588 0.0 0.0 0.0 0.0 0.0 0.0 114.2377 -2.07906 3.76857 16.736 12.781 10.3524 0.0 86.5443 0.0 15.3883 11.3138 51.1112 0.0 0.0 0.0 0.0 0.0 0.0 -0.480226 8.74308 16.7497 0.0 6.89218 0.0 -3.84023 3.8808002 11.9648 0.0 -8.62944 0.0 2.14442 -5.38938 6.18875 0.0 14.7147 0.0 24.5286 12.93947 -25.9115 0.0 -11.841021 0.0 
  1.2013500213623047 9.727579956054688 10.478699951171874 -52.4095 83.2005 39.2251 6.90925 -13.1998 -9.44135 -9.40662 26.2954 5.14188 10.8878 63.5759 -10.4355 22.5396 -63.8694 19.1081 -108.4984 0.399749 -12.7696 -14.6014 13.3463 2.28383 0.0 93.3826 0.0 -15.2931 9.74387 -51.4186 0.0 0.0 0.0 0.0 0.0 0.0 114.2193 -2.04383 3.78489 16.8308 12.8099 10.4166 0.0 86.5888 0.0 15.4061 11.407 51.2028 0.0 0.0 0.0 0.0 0.0 0.0 -0.455409 8.72786 16.7867 0.0 6.98352 0.0 -3.84943 3.8614998 11.9617 0.0 -8.631559 0.0 2.16228 -5.36579 6.24307 0.0 14.7206 0.0 24.5588 12.8989105 -25.9259 0.0 -11.82233 0.0 
  1.1980000305175782 9.723770141601562 10.479300537109374 -52.4043 83.1957 39.228 6.82463 -13.1885 -9.51117 -9.23437 26.3921 5.18715 10.7597 63.6395 -10.3174 22.4701 -63.9823 19.0079 -108.556 0.383063 -12.8465 -14.6896 13.3659 2.26915 0.0 93.4297 0.0 -15.3393 9.68458 -51.453 0.0 0.0 0.0 0.0 0.0 0.0 114.1642 -2.08667 3.79586 16.9009 12.8894 10.4697 0.0 86.7029 0.0 15.3609 11.2352 51.2314 0.0 0.0 0.0 0.0 0.0 0.0 -0.414269 8.67816 16.8173 0.0 7.13959 0.0 -3.882 3.8288002 11.9417 0.0 -8.62724 0.0 2.18573 -5.35574 6.30017 0.0 14.7633 0.0 24.5961 12.84756 -25.9635 0.0 -11.8125305 0.0 
  1.1944400024414064 9.720789794921876 10.48 -52.3838 83.1939 39.2165 6.71467 -13.1495 -9.6104 -9.01431 26.4489 5.21231 10.5906 63.688 -10.1655 22.2243 -64.0063 18.7783 -108.639496 0.358797 -12.8426 -14.7641 13.3969 2.1599 0.0 93.435 0.0 -15.3875 9.67937 -51.4315 0.0 0.0 0.0 0.0 0.0 0.0 114.0983 -2.07778 3.74177 16.9458 12.9429 10.5516 0.0 86.8157 0.0 15.2198 11.1204 51.2286 0.0 0.0 0.0 0.0 0.0 0.0 -0.372473 8.59382 16.707 0.0 7.34776 0.0 -3.91669 3.7883997 12.0562 0.0 -8.61998 0.0 2.20884 -5.37213 6.31421 0.0 14.8371 0.0 24.5845 12.83745 -25.9952 0.0 -11.83051 0.0 
  1.1900499725341798 9.717780151367187 10.480699462890625 -52.3316 83.1871 39.1938 6.58774 -13.0866 -9.71607 -8.76519 26.4859 5.24118 10.3849 63.8353 -9.94729 22.1473 -64.1215 18.5925 -108.7035 0.355504 -12.8378 -14.8391 13.4011 2.10424 0.0 93.4718 0.0 -15.3253 9.66388 -51.5685 0.0 0.0 0.0 0.0 0.0 0.0 114.008896 -2.11931 3.75914 17.0421 12.9974 10.5933 0.0 86.8566 0.0 15.2392 11.2361 51.3535 0.0 0.0 0.0 0.0 0.0 0.0 -0.311151 8.48294 16.6954 0.0 7.62169 0.0 -3.91334 3.7394 12.0689 0.0 -8.63667 0.0 2.23363 -5.38916 6.27972 0.0 14.9293 0.0 24.5686 12.83023 -26.008 0.0 -11.87557 0.0 
  1.1854100036621094 9.7143701171875 10.481099853515625 -52.2693 83.1714 39.1527 6.48402 -13.0242 -9.80129 -8.54733 26.4996 5.26556 10.1347 64.0015 -9.66765 22.0815 -64.2159 18.3683 -108.7408 0.404693 -12.8607 -14.8826 13.3466 2.0947 0.0 93.5049 0.0 -15.2803 9.59718 -51.5429 0.0 0.0 0.0 0.0 0.0 0.0 113.8999 -2.1205 3.74008 17.1358 13.0109 10.6458 0.0 86.8816 0.0 15.2959 11.3328 51.4761 0.0 0.0 0.0 0.0 0.0 0.0 -0.25385 8.41997 16.7427 0.0 7.82228 0.0 -3.9175 3.6866999 12.0423 0.0 -8.618811 0.0 2.26205 -5.40156 6.25405 0.0 15.0318 0.0 24.5726 12.80111 -26.0041 0.0 -11.85731 0.0 
  1.1806999969482421 9.710609741210938 10.481400146484376 -52.1892 83.1594 39.0954 6.40405 -12.9514 -9.87912 -8.36991 26.4935 5.26606 10.0088 64.2017 -9.53798 22.0104 -64.3585 18.2664 -108.7844 0.387773 -12.8985 -14.9041 13.3559 2.08768 0.0 93.5297 0.0 -15.296 9.5335 -51.5217 0.0 0.0 0.0 0.0 0.0 0.0 113.8343 -2.10638 3.67404 17.1592 13.0418 10.7239 0.0 86.9212 0.0 15.3483 11.332 51.58 0.0 0.0 0.0 0.0 0.0 0.0 -0.213434 8.39054 16.706 0.0 7.96058 0.0 -3.87354 3.6703997 12.0999 0.0 -8.642651 0.0 2.28682 -5.41514 6.24043 0.0 15.1481 0.0 24.5707 12.75881 -26.0236 0.0 -11.84066 0.0 
  1.175790023803711 9.706209716796875 10.481400146484376 -52.1059 83.1491 39.0311 6.33502 -12.9023 -9.93641 -8.21603 26.5099 5.28565 9.84552 64.3672 -9.35631 21.9619 -64.4428 18.0942 -108.804596 0.388681 -12.8838 -14.9332 13.4066 2.03392 0.0 93.5309 0.0 -15.3509 9.51939 -51.5288 0.0 0.0 0.0 0.0 0.0 0.0 113.7502 -2.09586 3.70963 17.218 13.0038 10.7131 0.0 86.9951 0.0 15.3357 11.2721 51.5913 0.0 0.0 0.0 0.0 0.0 0.0 -0.176871 8.37423 16.7108 0.0 8.07757 0.0 -3.93292 3.5966997 12.0851 0.0 -8.57471 0.0 2.29905 -5.41096 6.20002 0.0 15.2249 0.0 24.6091 12.72256 -25.952 0.0 -11.86124 0.0 
  1.1706400299072266 9.701190185546874 10.481099853515625 -51.9892 83.1339 38.9363 6.29271 -12.8801 -9.96448 -8.12118 26.6221 5.33233 9.90676 64.3628 -9.47861 21.8451 -64.5345 18.06 -108.7703 0.377401 -12.9127 -14.9906 13.5021 2.01302 0.0 93.5753 0.0 -15.3012 9.50464 -51.534 0.0 0.0 0.0 0.0 0.0 0.0 113.6997 -2.2653 3.68004 17.2368 13.2179 10.7957 0.0 87.0287 0.0 15.2979 11.2288 51.4932 0.0 0.0 0.0 0.0 0.0 0.0 -0.148696 8.38615 16.6315 0.0 8.16078 0.0 -3.96196 3.5415 12.1542 0.0 -8.585569 0.0 2.32139 -5.41265 6.18657 0.0 15.3512 0.0 24.5932 12.651421 -25.9405 0.0 -11.83722 0.0 
  1.1648200225830079 9.695380249023437 10.480799560546876 -51.8626 83.1323 38.8595 6.27123 -12.8647 -10.0119 -8.08418 26.5689 5.28309 9.67585 64.6191 -9.18299 21.8202 -64.5669 17.8697 -108.7498 0.406166 -12.8418 -14.9456 13.455 1.94982 0.0 93.5952 0.0 -15.3588 9.50902 -51.5938 0.0 0.0 0.0 0.0 0.0 0.0 113.6735 -2.12928 3.57917 17.2516 13.1157 10.8468 0.0 87.0891 0.0 15.2764 11.1605 51.6353 0.0 0.0 0.0 0.0 0.0 0.0 -0.121161 8.39484 16.5297 0.0 8.23174 0.0 -4.00876 3.4927998 12.2016 0.0 -8.588221 0.0 2.33161 -5.39728 6.17273 0.0 15.4369 0.0 24.6302 12.55573 -25.9179 0.0 -11.83691 0.0 
  1.1588700103759766 9.690130004882812 10.48050048828125 -51.808 83.1296 38.8334 6.23529 -12.8605 -10.057 -8.01292 26.5898 5.27586 9.5457 64.7402 -9.04809 21.7176 -64.6054 17.6739 -108.7525 0.42364 -12.8433 -14.9292 13.4607 1.93425 0.0 93.6139 0.0 -15.3259 9.49622 -51.5591 0.0 0.0 0.0 0.0 0.0 0.0 113.6332 -2.09389 3.53147 17.259 13.1497 10.8775 0.0 87.0872 0.0 15.2081 11.1833 51.7532 0.0 0.0 0.0 0.0 0.0 0.0 -0.0778949 8.38321 16.5604 0.0 8.34112 0.0 -3.96518 3.4675999 12.1709 0.0 -8.67067 0.0 2.3594 -5.39773 6.2182 0.0 15.5353 0.0 24.6847 12.44862 -25.9306 0.0 -11.82829 0.0 
  1.152969970703125 9.685029907226562 10.48010009765625 -51.8077 83.1401 38.8115 6.20071 -12.8375 -10.0806 -7.93522 26.5942 5.29129 9.51376 64.8214 -9.0525 21.5441 -64.6808 17.5613 -108.7793 0.368847 -12.856 -14.953 13.5321 1.93095 0.0 93.6519 0.0 -15.2769 9.34035 -51.3193 0.0 0.0 0.0 0.0 0.0 0.0 113.5419 -2.04473 3.63333 17.3773 13.0544 10.8191 0.0 87.1749 0.0 15.219 11.1754 51.6668 0.0 0.0 0.0 0.0 0.0 0.0 -0.0507797 8.37764 16.6346 0.0 8.41637 0.0 -4.03504 3.3948002 12.115 0.0 -8.60796 0.0 2.39039 -5.45105 6.27935 0.0 15.6915 0.0 24.7233 12.3532505 -25.9279 0.0 -11.8148 0.0 
